<svg width="32" height="32" viewBox="0 0 32 32" fill="none" xmlns="http://www.w3.org/2000/svg">
<mask id="mask0_4056_185" style="mask-type:luminance" maskUnits="userSpaceOnUse" x="0" y="0" width="32" height="32">
<path d="M0 16C0 7.16344 7.16344 0 16 0C24.8366 0 32 7.16344 32 16C32 24.8366 24.8366 32 16 32C7.16344 32 0 24.8366 0 16Z" fill="white"/>
</mask>
<g mask="url(#mask0_4056_185)">
<path d="M9.99984 16L13.9998 20L21.9998 12M29.3332 16C29.3332 23.3638 23.3636 29.3334 15.9998 29.3334C8.63604 29.3334 2.6665 23.3638 2.6665 16C2.6665 8.63622 8.63604 2.66669 15.9998 2.66669C23.3636 2.66669 29.3332 8.63622 29.3332 16Z" stroke="#2B43D5" stroke-width="2.66667" stroke-linecap="round" stroke-linejoin="round"/>
</g>
</svg>
